<?xml version="1.0" encoding="utf-8"?>
<!-- Generator: Adobe Illustrator 14.0.0, SVG Export Plug-In . SVG Version: 6.00 Build 43363)  -->
<!DOCTYPE svg PUBLIC "-//W3C//DTD SVG 1.1//EN" "http://www.w3.org/Graphics/SVG/1.1/DTD/svg11.dtd">
<svg version="1.1" id="Layer_1" xmlns="http://www.w3.org/2000/svg" xmlns:xlink="http://www.w3.org/1999/xlink" x="0px" y="0px"
	 width="200px" height="200px" viewBox="0 0 200 200" enable-background="new 0 0 200 200" xml:space="preserve">
<g id="Layer_21">
	<circle fill="#282828" cx="100" cy="100" r="100"/>
	<circle fill="none" stroke="#FFFFFF" stroke-width="4" stroke-miterlimit="10" cx="100" cy="100" r="87"/>
	<path fill="#FFFFFF" d="M57.75,140.906V67.434h64.287v43.214c2.354-0.608,4.807-0.969,7.348-0.969c0.621,0,1.227,0.055,1.838,0.094
		V54.576c0-4.058-3.291-7.347-9.186-7.347h-11.199c0.115,0.577,0.182,1.172,0.182,1.781c0,5.146-4.098,9.239-9.131,9.239H77.9
		c-5.033,0-9.127-4.095-9.127-9.128c0-0.649,0.064-1.282,0.189-1.893H54.078c-2.223,0-5.512,3.289-5.512,7.347v88.166
		c0,4.059,3.289,7.348,7.348,7.348h46.248c-1.164-2.864-1.871-5.957-2.072-9.185H57.75V140.906z"/>
	<path fill="#FFFFFF" d="M105.508,111.516v-1.836c0-1.014-0.822-1.836-1.836-1.836H65.098c-1.016,0-1.836,0.822-1.836,1.836v1.836
		c0,1.017,0.82,1.838,1.836,1.838h38.574C104.686,113.354,105.508,112.531,105.508,111.516z"/>
	<path fill="#FFFFFF" d="M77.9,54.576h23.991c3.012,0,5.452-2.442,5.452-5.455v-0.11c0-3.013-2.44-5.455-5.452-5.455H99.06
		c-1.51,0-2.736-1.225-2.736-2.736v-0.092c0-3.51-2.848-6.355-6.355-6.355H89.82c-3.51,0-6.354,2.846-6.354,6.355v0.092
		c0,1.512-1.225,2.736-2.736,2.736H77.9c-3.014,0-5.455,2.442-5.455,5.455v0.11C72.445,52.135,74.887,54.576,77.9,54.576z
		 M89.895,38.046c1.523,0,2.756,1.233,2.756,2.755c0,1.522-1.232,2.755-2.756,2.755c-1.521,0-2.754-1.233-2.754-2.755
		C87.141,39.279,88.373,38.046,89.895,38.046z"/>
	<path fill="#FFFFFF" d="M114.691,96.823v-1.837c0-1.015-0.822-1.837-1.836-1.837H65.098c-1.016,0-1.836,0.822-1.836,1.837v1.837
		c0,1.015,0.82,1.837,1.836,1.837h47.757C113.869,98.66,114.691,97.838,114.691,96.823z"/>
	<path fill="#FFFFFF" d="M65.098,124.375c-1.016,0-1.836,0.822-1.836,1.836v1.836c0,1.016,0.82,1.84,1.836,1.84h34.898
		c1.016,0,1.838-0.824,1.838-1.84v-1.836c0-1.014-0.822-1.836-1.838-1.836H65.098z"/>
	<path fill="#FFFFFF" d="M114.691,78.455c0-1.015-0.822-1.838-1.836-1.838H65.098c-1.016,0-1.836,0.823-1.836,1.838v1.837
		c0,1.014,0.82,1.837,1.836,1.837h47.757c1.015,0,1.836-0.823,1.836-1.837V78.455L114.691,78.455z"/>
	<path fill="#73C6DC" d="M129.385,115.191c-13.188,0-23.877,10.688-23.877,23.879c0,13.188,10.689,23.877,23.877,23.877
		c13.189,0,23.879-10.689,23.879-23.877C153.264,125.882,142.572,115.191,129.385,115.191z M144.988,134.164l-14.693,16.531
		c-0.723,0.812-1.732,1.229-2.748,1.229c-0.805,0-1.617-0.262-2.293-0.805l-9.184-7.349c-1.584-1.266-1.842-3.578-0.574-5.162
		c1.268-1.586,3.578-1.842,5.164-0.571l6.461,5.166l12.377-13.925c1.348-1.516,3.668-1.653,5.186-0.305
		C146.199,130.324,146.336,132.645,144.988,134.164z"/>
</g>
</svg>
